<svg width="22" height="22" viewBox="0 0 22 22" fill="none" xmlns="http://www.w3.org/2000/svg">
<g clip-path="url(#clip0_416_1428)">
<path d="M21.1768 4.43767V17.5627C21.1768 18.3075 20.6091 18.8752 19.8643 18.8752H18.5518V6.96357L10.6768 12.6204L2.80176 6.96357V18.8752H1.48926C0.744414 18.8752 0.176758 18.3075 0.176758 17.5627V4.43767C0.176758 4.06492 0.317195 3.73679 0.552789 3.50448C0.67549 3.38171 0.821622 3.28487 0.982498 3.21971C1.14337 3.15454 1.31571 3.12239 1.48926 3.12517H1.92698L10.6768 9.46913L19.4265 3.12517H19.8643C20.237 3.12517 20.5651 3.2656 20.8007 3.50448C21.0363 3.73679 21.1768 4.06492 21.1768 4.43767Z" fill="white"/>
</g>
<defs>
<clipPath id="clip0_416_1428">
<rect width="21" height="21" fill="white" transform="translate(0.176758 0.5)"/>
</clipPath>
</defs>
</svg>
