<svg width="18" height="18" viewBox="0 0 18 18" fill="none" xmlns="http://www.w3.org/2000/svg">
<path d="M8.58629 6.13619C7.00934 6.13619 5.72242 7.4231 5.72242 9.00005C5.72242 10.577 7.00934 11.8639 8.58629 11.8639C10.1632 11.8639 11.4502 10.577 11.4502 9.00005C11.4502 7.4231 10.1632 6.13619 8.58629 6.13619ZM17.1758 9.00005C17.1758 7.81411 17.1865 6.63892 17.1199 5.45513C17.0533 4.08013 16.7396 2.85982 15.7341 1.85435C14.7265 0.846733 13.5084 0.535209 12.1334 0.468608C10.9474 0.402006 9.77223 0.412748 8.58844 0.412748C7.4025 0.412748 6.2273 0.402006 5.04351 0.468608C3.66851 0.535209 2.4482 0.848881 1.44273 1.85435C0.435112 2.86197 0.123588 4.08013 0.0569867 5.45513C-0.00961491 6.64107 0.00112732 7.81626 0.00112732 9.00005C0.00112732 10.1838 -0.00961491 11.3612 0.0569867 12.545C0.123588 13.92 0.437261 15.1403 1.44273 16.1458C2.45035 17.1534 3.66851 17.4649 5.04351 17.5315C6.22945 17.5981 7.40465 17.5874 8.58844 17.5874C9.77438 17.5874 10.9496 17.5981 12.1334 17.5315C13.5084 17.4649 14.7287 17.1512 15.7341 16.1458C16.7418 15.1381 17.0533 13.92 17.1199 12.545C17.1886 11.3612 17.1758 10.186 17.1758 9.00005ZM8.58629 13.4065C6.14781 13.4065 4.17984 11.4385 4.17984 9.00005C4.17984 6.56158 6.14781 4.59361 8.58629 4.59361C11.0248 4.59361 12.9927 6.56158 12.9927 9.00005C12.9927 11.4385 11.0248 13.4065 8.58629 13.4065ZM13.1732 5.44224C12.6039 5.44224 12.1441 4.98247 12.1441 4.41314C12.1441 3.8438 12.6039 3.38404 13.1732 3.38404C13.7425 3.38404 14.2023 3.8438 14.2023 4.41314C14.2025 4.54833 14.176 4.68223 14.1243 4.80716C14.0727 4.93209 13.9969 5.04561 13.9013 5.1412C13.8057 5.2368 13.6922 5.31259 13.5672 5.36425C13.4423 5.41591 13.3084 5.44241 13.1732 5.44224Z" fill="white"/>
</svg>
