<svg width="22" height="14" viewBox="0 0 22 14" fill="none" xmlns="http://www.w3.org/2000/svg">
<path fill-rule="evenodd" clip-rule="evenodd" d="M21.4958 1.45201C21.648 0.951508 21.4958 0.583008 20.7671 0.583008H18.3608C17.7485 0.583008 17.4662 0.901091 17.3131 1.25217C17.3131 1.25217 16.0893 4.18184 14.3559 6.08484C13.7949 6.63667 13.5401 6.81176 13.2339 6.81176C13.0808 6.81176 12.8507 6.63667 12.8507 6.13526V1.45201C12.8507 0.850674 12.6821 0.583008 12.1724 0.583008H8.38842C8.00617 0.583008 7.77608 0.861674 7.77608 1.12659C7.77608 1.69584 8.64325 1.82784 8.73217 3.43017V6.91167C8.73217 7.67526 8.59192 7.81367 8.28575 7.81367C7.46992 7.81367 5.48533 4.87026 4.30742 1.50242C4.07917 0.847008 3.84817 0.583008 3.23308 0.583008H0.825C0.1375 0.583008 0 0.901091 0 1.25217C0 1.87734 0.815833 4.98301 3.79958 9.09059C5.78875 11.8956 8.58917 13.4163 11.1403 13.4163C12.6702 13.4163 12.859 13.079 12.859 12.4969V10.3767C12.859 9.70109 13.0038 9.56634 13.4888 9.56634C13.8463 9.56634 14.4577 9.74234 15.8858 11.0944C17.5175 12.6977 17.7861 13.4163 18.7046 13.4163H21.1108C21.7983 13.4163 22.143 13.079 21.945 12.4117C21.7268 11.748 20.9477 10.7846 19.9146 9.64151C19.3536 8.99067 18.5121 8.28942 18.2563 7.93834C17.8998 7.48826 18.0015 7.28751 18.2563 6.88692C18.2563 6.88692 21.1897 2.82976 21.4949 1.45201H21.4958Z" fill="white"/>
</svg>
